<?xml version="1.0" standalone="no"?>
<!DOCTYPE svg PUBLIC "-//W3C//DTD SVG 20010904//EN"
 "http://www.w3.org/TR/2001/REC-SVG-20010904/DTD/svg10.dtd">
<svg version="1.0" xmlns="http://www.w3.org/2000/svg"
 width="546.000000pt" height="546.000000pt" viewBox="0 0 546.000000 546.000000"
 preserveAspectRatio="xMidYMid meet">
<metadata>
Created by potrace 1.11, written by Peter Selinger 2001-2013
</metadata>
<g transform="translate(0.000000,546.000000) scale(0.100000,-0.100000)"
fill="#000000" stroke="none">
<path d="M2335 5428 c-38 -3 -83 -9 -100 -12 -16 -4 -46 -9 -65 -12 -30 -5
-135 -30 -275 -65 -21 -6 -44 -14 -50 -18 -5 -5 -18 -7 -27 -6 -10 2 -18 -1
-18 -6 0 -6 -6 -9 -12 -8 -7 2 -31 -5 -53 -15 -21 -9 -46 -18 -55 -19 -8 -2
-22 -7 -30 -12 -8 -5 -19 -10 -25 -11 -5 -1 -23 -8 -40 -15 -16 -7 -33 -12
-37 -11 -5 1 -8 -2 -8 -7 0 -5 -9 -11 -20 -14 -31 -8 -33 -9 -65 -28 -16 -10
-55 -30 -85 -45 -30 -15 -69 -37 -86 -50 -17 -13 -36 -24 -42 -24 -7 0 -12 -4
-12 -10 0 -5 -5 -10 -10 -10 -12 0 -73 -41 -78 -52 -2 -5 -8 -8 -14 -8 -5 0
-16 -6 -23 -12 -34 -31 -45 -38 -45 -31 0 4 -7 -2 -15 -13 -8 -10 -15 -15 -15
-11 0 4 -13 -6 -30 -23 -16 -16 -32 -30 -35 -30 -13 0 -248 -228 -345 -336
-80 -89 -101 -114 -93 -114 4 0 -2 -7 -14 -15 -12 -9 -41 -45 -64 -80 -23 -36
-46 -65 -51 -65 -5 0 -7 -4 -4 -9 3 -4 -3 -19 -14 -31 -11 -13 -20 -29 -20
-36 0 -7 -4 -14 -8 -16 -4 -1 -21 -30 -37 -63 -16 -33 -34 -63 -38 -66 -5 -3
-9 -10 -9 -15 -1 -15 -22 -59 -31 -65 -5 -3 -9 -10 -8 -15 1 -20 -12 -54 -20
-54 -5 0 -9 -9 -9 -20 0 -11 -4 -28 -9 -38 -9 -16 -23 -51 -25 -62 -1 -3 -4
-9 -8 -15 -5 -9 -31 -97 -29 -102 0 -2 -6 -18 -15 -38 -8 -19 -12 -35 -10 -35
3 0 -1 -18 -9 -40 -8 -22 -14 -44 -15 -48 0 -6 -12 -67 -15 -82 -11 -45 -28
-151 -40 -260 -20 -166 -20 -488 -1 -590 2 -14 7 -50 11 -81 3 -31 7 -65 9
-75 8 -40 19 -110 22 -129 1 -11 3 -20 4 -20 2 0 10 -37 14 -65 2 -14 6 -32 9
-40 3 -8 12 -35 18 -60 7 -25 13 -47 14 -50 1 -3 7 -25 14 -50 18 -65 53 -163
63 -176 4 -6 9 -23 10 -37 1 -14 6 -23 10 -21 4 3 8 -2 8 -11 0 -8 4 -23 10
-33 19 -35 72 -151 72 -159 -1 -4 7 -16 15 -25 9 -10 12 -18 7 -18 -5 0 -4 -4
1 -8 6 -4 22 -28 35 -55 14 -26 29 -47 33 -47 5 0 5 -4 2 -10 -3 -5 -1 -10 5
-10 7 0 9 -7 6 -16 -3 -8 -2 -12 4 -9 6 3 10 0 10 -8 0 -7 9 -23 20 -35 11
-12 20 -26 20 -32 0 -5 5 -10 10 -10 6 0 10 -6 10 -13 0 -7 8 -22 18 -33 9
-10 34 -44 55 -74 20 -30 48 -68 62 -83 14 -15 23 -27 20 -27 -8 0 301 -310
379 -379 72 -64 201 -161 216 -161 6 0 13 -7 16 -15 4 -8 10 -12 15 -9 5 3 9
0 9 -5 0 -6 7 -11 15 -11 9 0 18 -7 21 -15 4 -8 10 -12 15 -9 6 3 24 -5 42
-18 32 -24 221 -121 232 -118 3 0 18 -6 33 -14 23 -12 46 -22 72 -31 3 -1 19
-7 35 -14 39 -17 174 -62 200 -67 11 -2 29 -8 40 -13 17 -7 65 -20 143 -36 12
-3 32 -8 45 -11 12 -3 51 -10 87 -16 36 -6 72 -13 80 -15 8 -3 31 -7 50 -9 18
-2 50 -6 70 -9 137 -24 618 -23 745 1 17 3 48 7 70 9 22 2 40 4 40 5 0 2 36
10 72 15 18 3 50 11 72 19 23 7 38 10 35 5 -2 -5 15 -2 38 6 24 8 99 33 168
56 69 23 130 46 137 51 7 5 16 7 21 4 6 -3 15 1 22 9 7 8 21 15 30 15 10 0 20
5 22 10 2 6 13 12 26 13 12 0 22 4 22 7 0 3 25 16 55 30 30 14 55 29 55 34 0
4 7 6 15 2 8 -3 15 -1 15 4 0 5 16 16 35 25 19 9 39 23 46 31 6 8 16 14 21 14
6 0 28 14 49 31 21 17 39 27 39 22 0 -4 4 -3 8 2 4 6 27 26 52 45 25 19 47 37
50 41 3 4 21 16 40 28 19 11 31 21 26 21 -6 0 9 14 32 31 23 17 42 36 42 42 0
5 2 8 5 5 12 -12 302 290 348 363 11 16 24 29 30 29 6 0 8 3 4 6 -3 3 -1 11 4
18 47 56 59 73 59 84 0 6 3 12 8 12 4 0 16 17 27 38 11 20 22 39 25 42 10 10
78 132 104 187 6 13 15 23 19 23 5 0 6 4 2 9 -3 6 3 25 13 43 22 40 67 155 71
181 0 4 7 20 15 36 8 15 17 39 20 52 3 13 17 66 31 118 14 51 27 103 29 115 2
11 9 44 16 71 6 28 14 68 16 90 3 22 7 46 10 54 3 8 7 40 10 70 3 31 7 68 9
82 21 121 23 335 3 323 -4 -3 -8 0 -8 6 0 6 -4 8 -10 5 -5 -3 -10 -1 -10 4 0
6 -6 10 -12 8 -7 -1 -12 4 -10 11 1 8 -2 11 -8 7 -6 -3 -7 -12 -3 -18 4 -7 -1
-6 -10 2 -10 8 -20 11 -24 7 -3 -3 -1 -6 7 -6 10 0 10 -3 0 -15 -7 -8 -19 -15
-26 -15 -8 0 -14 -7 -14 -16 0 -9 -5 -12 -12 -8 -7 4 -8 3 -4 -5 4 -6 3 -17
-2 -24 -5 -7 -15 -30 -22 -52 -6 -22 -20 -58 -29 -80 -10 -22 -26 -61 -36 -87
-10 -27 -22 -48 -26 -48 -5 0 -9 -3 -8 -7 2 -16 -14 -53 -23 -53 -5 0 -7 -4
-4 -8 3 -5 -22 -53 -54 -107 -33 -54 -60 -102 -60 -106 0 -5 -4 -9 -8 -9 -5 0
-15 -12 -23 -27 -8 -16 -16 -30 -19 -33 -18 -17 -60 -80 -60 -89 0 -6 -4 -11
-9 -11 -6 0 -18 -13 -27 -29 -10 -17 -22 -27 -28 -24 -6 3 -8 3 -4 -2 4 -4
-13 -33 -39 -64 -60 -71 -253 -264 -317 -316 -26 -22 -56 -47 -65 -55 -9 -8
-32 -26 -51 -40 -19 -13 -38 -29 -42 -35 -4 -5 -8 -6 -8 -2 0 4 -12 -4 -27
-18 -16 -14 -36 -28 -45 -31 -10 -3 -18 -10 -18 -15 0 -5 -6 -9 -13 -9 -8 0
-27 -11 -43 -25 -16 -14 -35 -23 -41 -20 -7 2 -13 1 -13 -3 0 -10 -82 -58 -92
-54 -5 1 -8 -2 -8 -7 0 -5 -15 -14 -32 -22 -18 -7 -66 -28 -106 -46 -40 -18
-77 -31 -82 -28 -4 3 -10 -1 -13 -7 -3 -8 -9 -3 -14 11 -11 27 -10 146 1 230
7 50 9 63 20 109 2 9 14 41 25 70 28 70 34 110 34 207 0 69 -8 180 -13 180 -2
0 -5 11 -13 50 -3 11 -15 47 -27 80 -47 128 -71 211 -77 264 -12 108 -6 395
11 476 11 52 20 81 29 93 5 6 7 12 4 12 -3 0 1 16 9 35 8 19 13 38 12 42 0 5
1 15 5 23 6 17 23 91 31 135 3 17 13 55 21 85 8 30 17 62 19 70 6 22 76 190
89 214 7 11 18 26 25 34 6 7 12 16 12 20 0 10 70 85 70 75 0 -4 15 15 32 42
18 28 35 52 38 55 3 3 7 12 9 20 2 8 10 40 18 70 15 55 20 186 9 228 -3 12 -8
32 -11 43 -2 12 -11 32 -20 45 -8 13 -13 24 -10 24 3 0 0 7 -7 16 -43 53 -69
75 -89 80 -39 9 -84 8 -98 -1 -16 -9 -130 -10 -139 -1 -3 4 -7 25 -9 49 -4 64
-10 110 -18 132 -3 11 -6 23 -6 27 1 14 -67 137 -88 159 -11 12 -18 25 -16 29
3 5 -2 11 -11 14 -9 4 -14 9 -11 12 6 6 -79 84 -108 99 -11 6 -41 8 -66 5 -36
-4 -54 -13 -77 -38 -17 -18 -28 -32 -26 -32 3 0 0 -6 -6 -12 -20 -23 -100
-150 -100 -158 0 -5 -4 -10 -8 -12 -5 -1 -40 -51 -79 -110 -38 -59 -73 -104
-77 -100 -4 4 -6 2 -4 -4 3 -11 -89 -146 -104 -152 -5 -2 -8 -8 -8 -14 0 -6
-24 -39 -52 -73 -29 -35 -66 -80 -83 -101 -91 -117 -129 -142 -240 -160 -22
-3 -60 -15 -85 -26 -25 -12 -47 -21 -50 -20 -6 1 -256 -251 -323 -326 -26 -29
-47 -57 -47 -62 0 -6 -4 -10 -9 -10 -4 0 -24 -13 -42 -30 -26 -23 -161 -98
-189 -105 -3 -1 -14 -5 -25 -9 -11 -5 -38 -15 -60 -23 -139 -51 -267 -137
-320 -212 -29 -43 -36 -89 -24 -171 3 -21 129 -162 129 -145 0 4 15 -5 33 -19
19 -15 39 -26 45 -26 7 0 12 -3 12 -8 0 -4 17 -15 38 -25 111 -53 113 -55 91
-131 -9 -36 -15 -67 -11 -70 3 -3 0 -6 -7 -6 -7 0 -9 -4 -6 -10 3 -5 1 -27 -4
-47 -5 -21 -12 -63 -16 -93 -10 -92 -16 -134 -21 -142 -3 -4 -7 -16 -9 -25 -2
-10 -9 -31 -16 -48 -7 -16 -13 -32 -14 -35 -1 -3 -9 -22 -18 -44 -9 -21 -17
-42 -17 -47 0 -5 -4 -17 -9 -27 -14 -25 -24 -56 -23 -64 1 -5 -2 -8 -6 -8 -4
0 -8 -8 -9 -17 -2 -30 -25 -107 -36 -121 -8 -10 -19 -5 -48 24 -21 21 -35 42
-32 48 3 6 3 8 -2 4 -4 -4 -24 14 -43 40 -20 26 -39 49 -43 52 -13 10 -119
170 -119 180 0 5 -4 10 -10 10 -5 0 -10 6 -10 14 0 8 -3 16 -8 18 -8 3 -136
256 -138 274 -1 6 -9 27 -17 45 -19 44 -52 142 -67 199 -32 122 -48 193 -54
240 -3 25 -8 56 -11 70 -22 105 -21 452 1 563 2 12 9 51 15 87 6 36 18 92 26
125 8 33 17 71 19 84 3 13 9 32 14 41 5 10 6 20 3 24 -3 3 -2 6 4 6 6 0 10 6
10 13 -1 24 16 77 24 77 5 0 8 3 7 8 -2 8 9 48 22 77 11 24 33 78 34 85 4 17
51 106 60 112 6 4 8 8 4 8 -12 0 43 98 75 134 9 11 17 24 17 28 0 9 11 24 42
59 10 10 15 19 10 19 -4 0 -2 4 4 8 5 4 26 30 45 57 18 28 41 55 49 62 8 7 12
13 8 13 -3 0 6 12 20 28 15 15 41 45 57 67 59 78 216 239 295 303 19 15 42 35
51 44 10 9 20 14 23 11 3 -4 6 2 6 12 0 10 3 15 6 12 4 -4 23 6 43 22 40 31
132 86 144 86 4 0 11 5 15 10 4 6 25 18 47 29 22 10 52 25 67 33 15 7 30 14
33 14 2 0 22 7 42 16 21 8 43 16 48 17 6 2 27 10 49 19 21 9 42 14 47 11 5 -3
6 2 3 10 -4 9 -1 16 6 16 7 0 10 7 6 16 -5 14 -4 15 8 5 11 -10 14 -9 12 1 -1
7 -5 18 -9 24 -9 15 2 24 21 17 12 -4 10 1 -5 16 -13 12 -23 27 -23 33 0 6 -3
8 -7 5 -3 -4 -13 -1 -21 6 -13 9 -14 9 -8 0 4 -7 3 -13 -3 -13 -5 0 -11 3 -13
8 -1 4 -34 4 -73 0z"/>
</g>
</svg>
